<svg viewBox="0 0 200 200" fill="none" xmlns="http://www.w3.org/2000/svg">
<path d="M0.000485876 122.85C0.000487204 115.251 6.16065 109.091 13.7596 109.091L22.1133 109.091C60.1081 109.091 90.9089 139.892 90.9088 177.886L90.9088 186.24C90.9088 193.839 84.7487 199.999 77.1497 199.999L13.7596 199.999C6.16063 199.999 0.000473463 193.839 0.000474792 186.24L0.000485876 122.85Z" fill="#04C161"/>
<path d="M77.1491 0.00048768C84.7481 0.000488012 90.9082 6.16066 90.9082 13.7596V22.1134C90.9082 60.1082 60.1074 90.909 22.1127 90.909L13.7589 90.909C6.16 90.909 -0.000155449 84.7489 -0.000155449 77.1499V13.7596C-0.000155449 6.16065 6.16 0.000484577 13.7589 0.000484909L77.1491 0.00048768Z" fill="#04C161"/>
<path d="M200 77.1496C200 84.7485 193.839 90.9087 186.24 90.9087L177.887 90.9087C139.892 90.9087 109.091 60.1078 109.091 22.113L109.091 13.7593C109.091 6.16031 115.251 0.00014649 122.85 0.000147155L186.24 0.000152696C193.839 0.000153361 200 6.16033 200 13.7593L200 77.1496Z" fill="#04C161"/>
<path d="M122.851 200C115.252 200 109.092 193.84 109.092 186.241L109.092 177.887C109.092 139.892 139.893 109.091 177.887 109.091L186.241 109.091C193.84 109.091 200 115.252 200 122.851L200 186.241C200 193.84 193.84 200 186.241 200L122.851 200Z" fill="#04C161"/>
</svg>
