<svg viewBox="0 0 398 81" fill="none" xmlns="http://www.w3.org/2000/svg">
<path d="M-9.74314e-07 49.7543C-4.36215e-07 46.6768 2.49486 44.1819 5.57243 44.1819L8.9557 44.1819C24.3435 44.1819 36.8178 56.6563 36.8178 72.0442L36.8178 75.4274C36.8178 78.505 34.323 80.9999 31.2454 80.9999L5.57242 80.9999C2.49485 80.9999 -6.00122e-06 78.505 -5.46312e-06 75.4274L-9.74314e-07 49.7543Z" fill="#04C161"/>
<path d="M31.2454 -2.4358e-07C34.323 -1.09054e-07 36.8179 2.49487 36.8179 5.57246V8.95574C36.8179 24.3437 24.3436 36.818 8.95571 36.818L5.57245 36.818C2.49488 36.818 2.24113e-05 34.3231 2.24113e-05 31.2456V5.57245C2.24113e-05 2.49487 2.49488 -1.50031e-06 5.57245 -1.36579e-06L31.2454 -2.4358e-07Z" fill="#04C161"/>
<path d="M80.9995 31.2457C80.9995 34.3232 78.5046 36.8181 75.4271 36.8181L72.0438 36.8181C56.656 36.8181 44.1817 24.3437 44.1817 8.95583L44.1817 5.57255C44.1817 2.49497 46.6765 0.000103453 49.7541 0.000103722L75.4271 0.000105967C78.5047 0.000106236 80.9995 2.49498 80.9995 5.57256L80.9995 31.2457Z" fill="#04C161"/>
<path d="M49.7546 81C46.677 81 44.1821 78.5051 44.1821 75.4275L44.1821 72.0443C44.1821 56.6563 56.6565 44.182 72.0443 44.182L75.4276 44.182C78.5051 44.182 81 46.6769 81 49.7544L81 75.4276C81 78.5051 78.5051 81 75.4275 81L49.7546 81Z" fill="#04C161"/>
<path d="M373.3 9C373.712 9 374.083 9.25326 374.232 9.6377L397.677 69.9453C397.931 70.6006 397.448 71.3074 396.745 71.3076H383.399C382.983 71.3076 382.611 71.0494 382.464 70.6602L378.19 59.3135L373.517 46.6963L366.508 28.1592L360.5 44.0479H370.306C370.997 44.0479 371.48 44.7327 371.248 45.3838L367.095 57.0137C366.952 57.4114 366.575 57.6777 366.152 57.6777H355.43L354.824 59.3135L350.551 70.6602C350.404 71.0494 350.031 71.3076 349.615 71.3076H336.19C335.488 71.3076 335.004 70.6015 335.258 69.9463L358.627 9.63867C358.776 9.25371 359.147 9 359.56 9H373.3Z" fill="currentColor"/>
<path d="M274.693 71.3079C274.141 71.3079 273.693 70.8602 273.693 70.3079V10C273.693 9.44772 274.141 9 274.693 9H307.573C319.49 9 327.823 17.1 327.823 28.7049C327.823 37.428 322.761 44.5155 315.05 47.3194L329.696 69.7614C330.13 70.4266 329.653 71.3079 328.858 71.3079H314.119C313.777 71.3079 313.459 71.1333 313.276 70.845L299.24 48.7992H288.881V70.3079C288.881 70.8602 288.433 71.3079 287.881 71.3079H274.693ZM288.881 35.1693H306.639C310.221 35.1693 312.636 32.5991 312.636 28.9385C312.636 25.2001 310.221 22.6299 306.639 22.6299H288.881V35.1693Z" fill="currentColor"/>
<path d="M236.798 71.3079C236.246 71.3079 235.798 70.8602 235.798 70.3079V22.6299H217.532C216.814 22.6299 216.33 21.8958 216.613 21.2359L221.597 9.60608C221.755 9.2384 222.116 9 222.516 9H267.51C268.062 9 268.51 9.44772 268.51 10V21.6299C268.51 22.1821 268.062 22.6299 267.51 22.6299H250.908V70.3079C250.908 70.8602 250.46 71.3079 249.908 71.3079H236.798Z" fill="currentColor"/>
<path d="M175.291 71.3079C174.739 71.3079 174.291 70.8602 174.291 70.3079V10C174.291 9.44772 174.739 9 175.291 9H215.066C215.784 9 216.268 9.7339 215.986 10.3937L211.004 22.0236C210.846 22.3914 210.485 22.6299 210.085 22.6299H189.482L189.479 32.677H204.634C205.33 32.677 205.813 33.3697 205.573 34.0225L201.405 45.3409C201.261 45.7341 200.886 45.9953 200.467 45.9953H189.479V57.9896H213.635C214.188 57.9896 214.635 58.4373 214.635 58.9896V70.3079C214.635 70.8602 214.188 71.3079 213.635 71.3079H175.291Z" fill="currentColor"/>
<path d="M130.754 71.3079C130.341 71.3079 129.97 71.0542 129.821 70.6693L106.452 10.3613C106.198 9.70596 106.681 9 107.384 9H120.811C121.226 9 121.599 9.25706 121.746 9.64571L136.766 49.2906C137.092 50.1516 138.31 50.1516 138.637 49.2906L153.657 9.6457C153.804 9.25706 154.176 9 154.592 9H167.939C168.642 9 169.126 9.70681 168.871 10.3623L145.426 70.6703C145.277 71.0547 144.907 71.3079 144.494 71.3079H130.754Z" fill="currentColor"/>
</svg>
