<svg width="545" height="133" viewBox="0 0 545 133" fill="none" xmlns="http://www.w3.org/2000/svg">
<path fill-rule="evenodd" clip-rule="evenodd" d="M58.6408 74.8322C74.4935 74.7968 90.357 80.8639 102.452 93.0341C105.294 95.8939 107.802 98.963 109.974 102.192C111.077 103.831 110.345 106.031 108.526 106.799L89.6965 114.744C88.3067 115.331 86.7079 114.877 85.7281 113.73C85.1418 113.043 84.5253 112.373 83.8787 111.723C81.2544 109.082 78.3215 106.942 75.1969 105.301C70.0269 102.586 64.3318 101.24 58.6408 101.262C52.9499 101.24 47.2547 102.586 42.0845 105.301C38.96 106.942 36.0271 109.082 33.403 111.723C32.7563 112.373 32.1397 113.043 31.5534 113.73C30.5735 114.877 28.9748 115.331 27.5849 114.744L8.7558 106.799C6.93666 106.031 6.20503 103.831 7.3075 102.192C9.47987 98.963 11.9872 95.8939 14.8294 93.0341C26.9245 80.8639 42.7882 74.7968 58.6408 74.8322Z" fill="#7A3AFF"/>
<path fill-rule="evenodd" clip-rule="evenodd" d="M26.6736 16.0075C26.6736 31.2193 17.2219 44.2101 3.90538 49.3584C2.66372 49.8384 1.75891 50.9576 1.65599 52.2856L0.0100223 73.5222C-0.151054 75.6004 1.65347 77.2986 3.69348 76.8762C31.8037 71.0548 52.9405 46.0147 52.9405 16.0075C52.9405 11.333 52.4275 6.77904 51.4552 2.39953C51.0335 0.499797 48.9861 -0.492385 47.1858 0.243755L28.4687 7.89689C27.0205 8.48903 26.2122 10.0248 26.4032 11.5784C26.5816 13.0296 26.6736 14.5077 26.6736 16.0075Z" fill="#7A3AFF"/>
<path fill-rule="evenodd" clip-rule="evenodd" d="M91.9847 16.0075C91.9847 31.2193 101.436 44.2101 114.753 49.3584C115.995 49.8384 116.899 50.9576 117.002 52.2856L118.648 73.5222C118.809 75.6004 117.005 77.2986 114.965 76.8762C86.8546 71.0548 65.7178 46.0147 65.7178 16.0075C65.7178 11.333 66.2308 6.77904 67.203 2.39953C67.6248 0.499797 69.6721 -0.492385 71.4725 0.243755L90.1896 7.89689C91.6378 8.48903 92.4461 10.0248 92.2551 11.5784C92.0766 13.0296 91.9847 14.5077 91.9847 16.0075Z" fill="#7A3AFF"/>
<path d="M387.338 99.8409C386.786 99.8409 386.338 99.3932 386.338 98.8409V21.5293C386.338 20.977 386.786 20.5293 387.338 20.5293H429.438C444.597 20.5293 455.199 30.8398 455.199 45.6116C455.199 56.7152 448.759 65.7369 438.95 69.3059L457.856 98.2946C458.29 98.9598 457.813 99.8409 457.019 99.8409H437.616C437.274 99.8409 436.956 99.6662 436.773 99.3778L418.836 71.1896H405.659V98.8409C405.659 99.3932 405.211 99.8409 404.659 99.8409H387.338ZM405.659 53.8402H428.249C432.807 53.8402 435.878 50.5686 435.878 45.909C435.878 41.1503 432.807 37.8787 428.249 37.8787H405.659V53.8402Z" fill="white"/>
<path d="M308.34 99.8409C307.788 99.8409 307.34 99.3932 307.34 98.8409V21.5293C307.34 20.977 307.788 20.5293 308.34 20.5293H325.661C326.213 20.5293 326.661 20.977 326.661 21.5293V50.866H355.889V21.5293C355.889 20.977 356.337 20.5293 356.889 20.5293H374.111C374.663 20.5293 375.111 20.977 375.111 21.5293V98.8409C375.111 99.3932 374.663 99.8409 374.111 99.8409H356.889C356.337 99.8409 355.889 99.3932 355.889 98.8409V68.2154H326.661V98.8409C326.661 99.3932 326.213 99.8409 325.661 99.8409H308.34Z" fill="white"/>
<path d="M260.872 100.93C237.39 100.93 220.646 84.3739 220.646 60.0847C220.646 35.8947 237.39 19.4375 260.674 19.4375C281.532 19.4375 296.69 33.0288 300.848 51.5569C300.986 52.1714 300.513 52.7484 299.883 52.7484H281.842C281.394 52.7484 281.003 52.4499 280.866 52.0239C278.254 43.944 270.597 37.6792 261.07 37.6792C249.379 37.6792 240.462 46.7009 240.462 60.0847C240.462 73.3694 249.478 82.1928 261.269 82.1928C271.089 82.1928 278.571 76.4825 281.168 68.1546C281.302 67.724 281.695 67.421 282.146 67.421H300.118C300.735 67.421 301.206 67.978 301.089 68.5845C297.41 87.6895 282.045 100.93 260.872 100.93Z" fill="white"/>
<path d="M194.568 20.5293C194.981 20.5293 195.352 20.7826 195.501 21.167L225.538 98.4785C225.793 99.134 225.309 99.8408 224.606 99.8408H207.042C206.626 99.8408 206.253 99.583 206.107 99.1934L200.604 84.5732L194.658 68.5127L185.741 44.918L178.51 64.0518H190.961C191.652 64.0518 192.135 64.7365 191.902 65.3877L186.424 80.7373C186.282 81.1353 185.905 81.4013 185.482 81.4014H172.054L170.879 84.5732L165.376 99.1934C165.229 99.583 164.857 99.8408 164.44 99.8408H146.776C146.074 99.8408 145.59 99.1348 145.844 98.4795L175.784 21.168C175.933 20.7831 176.304 20.5293 176.717 20.5293H194.568Z" fill="white"/>
<path d="M511.929 20.5293C512.341 20.5295 512.711 20.7828 512.86 21.167L542.898 98.4785C543.152 99.134 542.668 99.8408 541.965 99.8408H524.401C523.985 99.8407 523.613 99.5829 523.466 99.1934L517.963 84.5732L512.019 68.5127L503.101 44.918L495.869 64.0518H508.32C509.012 64.0518 509.495 64.7366 509.263 65.3877L503.783 80.7373C503.641 81.1354 503.265 81.4014 502.842 81.4014H489.413L488.238 84.5732L482.735 99.1934C482.589 99.583 482.216 99.8408 481.8 99.8408H464.136C463.433 99.8408 462.949 99.1348 463.203 98.4795L493.144 21.168C493.293 20.7831 493.663 20.5293 494.076 20.5293H511.929Z" fill="white"/>
<path d="M223.02 113.14C223.02 114.3 222.62 115.267 221.82 116.04C221.033 116.8 219.827 117.18 218.2 117.18H215.52V123H213.7V109.06H218.2C219.773 109.06 220.967 109.44 221.78 110.2C222.607 110.96 223.02 111.94 223.02 113.14ZM218.2 115.68C219.213 115.68 219.96 115.46 220.44 115.02C220.92 114.58 221.16 113.953 221.16 113.14C221.16 111.42 220.173 110.56 218.2 110.56H215.52V115.68H218.2ZM229.062 123.18C228.036 123.18 227.102 122.947 226.262 122.48C225.436 122.013 224.782 121.353 224.302 120.5C223.836 119.633 223.602 118.633 223.602 117.5C223.602 116.38 223.842 115.393 224.322 114.54C224.816 113.673 225.482 113.013 226.322 112.56C227.162 112.093 228.102 111.86 229.142 111.86C230.182 111.86 231.122 112.093 231.962 112.56C232.802 113.013 233.462 113.667 233.942 114.52C234.436 115.373 234.682 116.367 234.682 117.5C234.682 118.633 234.429 119.633 233.922 120.5C233.429 121.353 232.756 122.013 231.902 122.48C231.049 122.947 230.102 123.18 229.062 123.18ZM229.062 121.58C229.716 121.58 230.329 121.427 230.902 121.12C231.476 120.813 231.936 120.353 232.282 119.74C232.642 119.127 232.822 118.38 232.822 117.5C232.822 116.62 232.649 115.873 232.302 115.26C231.956 114.647 231.502 114.193 230.942 113.9C230.382 113.593 229.776 113.44 229.122 113.44C228.456 113.44 227.842 113.593 227.282 113.9C226.736 114.193 226.296 114.647 225.962 115.26C225.629 115.873 225.462 116.62 225.462 117.5C225.462 118.393 225.622 119.147 225.942 119.76C226.276 120.373 226.716 120.833 227.262 121.14C227.809 121.433 228.409 121.58 229.062 121.58ZM250.675 112.04L247.255 123H245.375L242.735 114.3L240.095 123H238.215L234.775 112.04H236.635L239.155 121.24L241.875 112.04H243.735L246.395 121.26L248.875 112.04H250.675ZM261.481 117.1C261.481 117.447 261.461 117.813 261.421 118.2H252.661C252.728 119.28 253.095 120.127 253.761 120.74C254.441 121.34 255.261 121.64 256.221 121.64C257.008 121.64 257.661 121.46 258.181 121.1C258.715 120.727 259.088 120.233 259.301 119.62H261.261C260.968 120.673 260.381 121.533 259.501 122.2C258.621 122.853 257.528 123.18 256.221 123.18C255.181 123.18 254.248 122.947 253.421 122.48C252.608 122.013 251.968 121.353 251.501 120.5C251.035 119.633 250.801 118.633 250.801 117.5C250.801 116.367 251.028 115.373 251.481 114.52C251.935 113.667 252.568 113.013 253.381 112.56C254.208 112.093 255.155 111.86 256.221 111.86C257.261 111.86 258.181 112.087 258.981 112.54C259.781 112.993 260.395 113.62 260.821 114.42C261.261 115.207 261.481 116.1 261.481 117.1ZM259.601 116.72C259.601 116.027 259.448 115.433 259.141 114.94C258.835 114.433 258.415 114.053 257.881 113.8C257.361 113.533 256.781 113.4 256.141 113.4C255.221 113.4 254.435 113.693 253.781 114.28C253.141 114.867 252.775 115.68 252.681 116.72H259.601ZM264.704 113.82C265.024 113.193 265.477 112.707 266.064 112.36C266.664 112.013 267.39 111.84 268.244 111.84V113.72H267.764C265.724 113.72 264.704 114.827 264.704 117.04V123H262.884V112.04H264.704V113.82ZM279.345 117.1C279.345 117.447 279.325 117.813 279.285 118.2H270.525C270.591 119.28 270.958 120.127 271.625 120.74C272.305 121.34 273.125 121.64 274.085 121.64C274.871 121.64 275.525 121.46 276.045 121.1C276.578 120.727 276.951 120.233 277.165 119.62H279.125C278.831 120.673 278.245 121.533 277.365 122.2C276.485 122.853 275.391 123.18 274.085 123.18C273.045 123.18 272.111 122.947 271.285 122.48C270.471 122.013 269.831 121.353 269.365 120.5C268.898 119.633 268.665 118.633 268.665 117.5C268.665 116.367 268.891 115.373 269.345 114.52C269.798 113.667 270.431 113.013 271.245 112.56C272.071 112.093 273.018 111.86 274.085 111.86C275.125 111.86 276.045 112.087 276.845 112.54C277.645 112.993 278.258 113.62 278.685 114.42C279.125 115.207 279.345 116.1 279.345 117.1ZM277.465 116.72C277.465 116.027 277.311 115.433 277.005 114.94C276.698 114.433 276.278 114.053 275.745 113.8C275.225 113.533 274.645 113.4 274.005 113.4C273.085 113.4 272.298 113.693 271.645 114.28C271.005 114.867 270.638 115.68 270.545 116.72H277.465ZM280.067 117.48C280.067 116.36 280.294 115.38 280.747 114.54C281.2 113.687 281.82 113.027 282.607 112.56C283.407 112.093 284.3 111.86 285.287 111.86C286.14 111.86 286.934 112.06 287.667 112.46C288.4 112.847 288.96 113.36 289.347 114V108.2H291.187V123H289.347V120.94C288.987 121.593 288.454 122.133 287.747 122.56C287.04 122.973 286.214 123.18 285.267 123.18C284.294 123.18 283.407 122.94 282.607 122.46C281.82 121.98 281.2 121.307 280.747 120.44C280.294 119.573 280.067 118.587 280.067 117.48ZM289.347 117.5C289.347 116.673 289.18 115.953 288.847 115.34C288.514 114.727 288.06 114.26 287.487 113.94C286.927 113.607 286.307 113.44 285.627 113.44C284.947 113.44 284.327 113.6 283.767 113.92C283.207 114.24 282.76 114.707 282.427 115.32C282.094 115.933 281.927 116.653 281.927 117.48C281.927 118.32 282.094 119.053 282.427 119.68C282.76 120.293 283.207 120.767 283.767 121.1C284.327 121.42 284.947 121.58 285.627 121.58C286.307 121.58 286.927 121.42 287.487 121.1C288.06 120.767 288.514 120.293 288.847 119.68C289.18 119.053 289.347 118.327 289.347 117.5ZM299.415 114.08C299.788 113.427 300.335 112.893 301.055 112.48C301.775 112.067 302.595 111.86 303.515 111.86C304.501 111.86 305.388 112.093 306.175 112.56C306.961 113.027 307.581 113.687 308.035 114.54C308.488 115.38 308.715 116.36 308.715 117.48C308.715 118.587 308.488 119.573 308.035 120.44C307.581 121.307 306.955 121.98 306.155 122.46C305.368 122.94 304.488 123.18 303.515 123.18C302.568 123.18 301.735 122.973 301.015 122.56C300.308 122.147 299.775 121.62 299.415 120.98V123H297.595V108.2H299.415V114.08ZM306.855 117.48C306.855 116.653 306.688 115.933 306.355 115.32C306.021 114.707 305.568 114.24 304.995 113.92C304.435 113.6 303.815 113.44 303.135 113.44C302.468 113.44 301.848 113.607 301.275 113.94C300.715 114.26 300.261 114.733 299.915 115.36C299.581 115.973 299.415 116.687 299.415 117.5C299.415 118.327 299.581 119.053 299.915 119.68C300.261 120.293 300.715 120.767 301.275 121.1C301.848 121.42 302.468 121.58 303.135 121.58C303.815 121.58 304.435 121.42 304.995 121.1C305.568 120.767 306.021 120.293 306.355 119.68C306.688 119.053 306.855 118.32 306.855 117.48ZM319.55 112.04L312.95 128.16H311.07L313.23 122.88L308.81 112.04H310.83L314.27 120.92L317.67 112.04H319.55Z" fill="white"/>
<path d="M337.828 127.577V121.714H341.158C346.404 121.714 349.678 118.895 349.678 114.554C349.678 110.213 346.431 107.395 341.214 107.395H332V127.577H337.828ZM337.828 111.679H340.548C342.518 111.679 343.823 112.807 343.823 114.554C343.823 116.302 342.518 117.43 340.548 117.43H337.828V111.679Z" fill="white"/>
<path d="M361.636 128C368.268 128 372.764 123.913 372.764 117.486C372.764 111.059 368.268 107 361.636 107C354.975 107 350.479 111.059 350.479 117.486C350.479 123.913 354.975 128 361.636 128ZM361.636 123.123C358.5 123.123 356.335 120.897 356.335 117.486C356.335 114.103 358.5 111.848 361.636 111.848C364.772 111.848 366.909 114.103 366.909 117.486C366.909 120.897 364.772 123.123 361.636 123.123Z" fill="white"/>
<path d="M386.145 127.577L388.92 115.344H389.197L391.973 127.577H400.132L405.488 107.395H399.633L395.941 122.193H395.664L391.973 107.395H386.145L382.481 122.193H382.204L378.485 107.395H372.629L377.985 127.577H386.145Z" fill="white"/>
<path d="M422.603 127.577V122.898H412.695V119.318H420.064V115.456H412.695V112.074H422.325V107.395H407.034V127.577H422.603Z" fill="white"/>
<path d="M430.303 127.577V120.925H431.719L436.659 127.577H443.18L437.325 120.474L437.547 120.417C440.433 119.882 442.542 117.57 442.542 114.272C442.542 110.157 439.323 107.395 434.466 107.395H424.447V127.577H430.303ZM430.303 111.679H433.439C435.299 111.679 436.686 112.694 436.686 114.357C436.686 116.048 435.299 117.063 433.439 117.063H430.303V111.679Z" fill="white"/>
<path d="M450.346 127.577V119.487H457.145V127.577H463.001V107.395H457.145V114.836H450.346V107.395H444.49V127.577H450.346Z" fill="white"/>
<path d="M475.996 128C482.629 128 487.125 123.913 487.125 117.486C487.125 111.059 482.629 107 475.996 107C469.336 107 464.84 111.059 464.84 117.486C464.84 123.913 469.336 128 475.996 128ZM475.996 123.123C472.86 123.123 470.696 120.897 470.696 117.486C470.696 114.103 472.86 111.848 475.996 111.848C479.132 111.848 481.269 114.103 481.269 117.486C481.269 120.897 479.132 123.123 475.996 123.123Z" fill="white"/>
<path d="M498.179 128C503.73 128 507.504 124.617 507.504 119.29V107.395H501.648V119.093C501.648 121.517 500.261 123.123 498.179 123.123C496.07 123.123 494.71 121.545 494.71 119.093V107.395L488.854 110.895V119.29C488.854 124.617 492.629 128 498.179 128Z" fill="white"/>
<path d="M518.338 128C523.888 128 527.524 125.407 527.524 121.404C527.524 116.528 522.945 115.795 519.559 115.287C517.256 114.949 515.285 114.695 515.285 113.173C515.285 112.046 516.395 111.256 518.255 111.256C520.253 111.256 521.557 112.271 521.557 114.047H526.858C526.858 109.875 523.333 107 518.06 107C512.815 107 509.429 109.593 509.429 113.596C509.429 118.783 514.591 119.205 518.005 119.685C520.031 119.966 521.668 120.305 521.668 121.77C521.668 123.011 520.447 123.715 518.56 123.715C516.173 123.715 514.813 122.616 514.786 120.925H509.291C509.291 125.097 512.898 128 518.338 128Z" fill="white"/>
<path d="M545 127.577V122.898H535.092V119.318H542.461V115.456H535.092V112.074H544.722V107.395H529.431V127.577H545Z" fill="white"/>
</svg>
