<svg width="267" height="50" viewBox="0 0 267 50" fill="none" xmlns="http://www.w3.org/2000/svg">
<path d="M26.1051 7.56511C25.8792 7.5651 25.6961 7.38196 25.6961 7.15603L25.6959 1.78703e-05C32.2715 0.272713 38.1816 3.1205 42.4449 7.56549L26.1051 7.56511ZM25.6963 17.8363C25.6963 18.0622 25.8794 18.2454 26.1054 18.2454L48.4708 18.2459C47.625 15.0844 46.1664 12.1723 44.2322 9.64674L26.1052 9.64634C25.8793 9.64634 25.6961 9.8295 25.6961 10.0554L25.6963 17.8363ZM6.86351 41.69C11.1252 46.1334 17.0352 48.9811 23.6125 49.2555L23.6124 42.0995C23.6124 41.8736 23.4292 41.6904 23.2033 41.6904L6.86351 41.69ZM25.6954 49.2539C32.2711 48.9815 38.1826 46.1324 42.4441 41.6892L26.1043 41.6889C25.8784 41.6889 25.6952 41.872 25.6952 42.098L25.6954 49.2539ZM32.1207 31.4161C32.1207 31.1902 31.9375 31.007 31.7116 31.007L0.837614 31.0063C1.68339 34.1678 3.14029 37.0782 5.07621 39.6055L31.7118 39.6061C31.9377 39.6061 32.1209 39.4229 32.1209 39.197L32.1207 31.4161ZM12.1538 20.7251C12.1482 20.5032 11.9668 20.3263 11.7448 20.3262L0.374872 20.326C0.128792 21.7217 -3.43849e-05 23.1588 6.88397e-09 24.6255C3.43987e-05 26.0923 0.128939 27.5293 0.375084 28.9251L11.7423 28.9237C11.9647 28.9237 12.1463 28.7461 12.1513 28.5238L12.2446 24.3438L12.1538 20.7251ZM33.8787 39.1987C33.8787 39.4247 34.0618 39.6078 34.2878 39.6078L44.2312 39.608C46.167 37.0809 47.6238 34.1705 48.4694 31.0091L34.2876 31.0087C34.0616 31.0087 33.8785 31.1919 33.8785 31.4178L33.8787 39.1987ZM48.93 20.3272L14.6768 20.3263C14.4508 20.3263 14.2676 20.5095 14.2676 20.7354L14.2678 28.5163C14.2678 28.7423 14.451 28.9254 14.6769 28.9254L48.9302 28.9262C49.1763 27.5305 49.3051 26.0934 49.3051 24.6267C49.305 23.1599 49.1762 21.7229 48.93 20.3272ZM23.6116 10.0553C23.6116 9.82942 23.4285 9.64627 23.2025 9.64627L5.07552 9.64582C3.13971 12.173 1.68292 15.0833 0.837293 18.2448L23.2027 18.2453C23.4286 18.2453 23.6118 18.0622 23.6118 17.8362L23.6116 10.0553ZM23.6114 0C17.0357 0.272386 11.1241 3.12152 6.86269 7.56466L23.2024 7.56503C23.4284 7.56504 23.6115 7.38187 23.6115 7.15593L23.6114 0Z" fill="url(#paint0_linear_4122_19460)"/>
<path d="M65.7371 24.8345C65.7371 21.4127 66.4757 18.3694 67.9528 15.7044C69.4298 13.0065 71.4814 10.9172 74.1073 9.43668C76.7661 7.92322 79.7695 7.1665 83.1176 7.1665C87.2206 7.1665 90.7328 8.25224 93.6542 10.4237C96.5755 12.5952 98.5286 15.5563 99.5133 19.3071H90.2569C89.5676 17.8594 88.5828 16.7572 87.3027 16.0005C86.0554 15.2437 84.6275 14.8654 83.0191 14.8654C80.426 14.8654 78.3252 15.7702 76.7168 17.5797C75.1084 19.3893 74.3043 21.8075 74.3043 24.8345C74.3043 27.8614 75.1084 30.2796 76.7168 32.0892C78.3252 33.8987 80.426 34.8035 83.0191 34.8035C84.6275 34.8035 86.0554 34.4252 87.3027 33.6684C88.5828 32.9117 89.5676 31.8095 90.2569 30.3619H99.5133C98.5286 34.1126 96.5755 37.0737 93.6542 39.2452C90.7328 41.3838 87.2206 42.4531 83.1176 42.4531C79.7695 42.4531 76.7661 41.7128 74.1073 40.2322C71.4814 38.7188 69.4298 36.6296 67.9528 33.9646C66.4757 31.2996 65.7371 28.2562 65.7371 24.8345Z" fill="black"/>
<path d="M115.206 42.6011C112.514 42.6011 110.085 42.0254 107.919 40.8738C105.785 39.7223 104.095 38.0772 102.848 35.9386C101.633 33.8 101.026 31.2996 101.026 28.4371C101.026 25.6076 101.649 23.1236 102.897 20.985C104.144 18.8135 105.851 17.152 108.017 16.0005C110.184 14.8489 112.613 14.2732 115.304 14.2732C117.996 14.2732 120.425 14.8489 122.591 16.0005C124.758 17.152 126.465 18.8135 127.712 20.985C128.959 23.1236 129.583 25.6076 129.583 28.4371C129.583 31.2666 128.943 33.7671 127.663 35.9386C126.415 38.0772 124.692 39.7223 122.493 40.8738C120.326 42.0254 117.897 42.6011 115.206 42.6011ZM115.206 35.2971C116.814 35.2971 118.176 34.7048 119.293 33.5204C120.441 32.3359 121.016 30.6415 121.016 28.4371C121.016 26.2328 120.458 24.5383 119.342 23.3539C118.259 22.1695 116.913 21.5772 115.304 21.5772C113.663 21.5772 112.301 22.1695 111.218 23.3539C110.135 24.5054 109.593 26.1999 109.593 28.4371C109.593 30.6415 110.118 32.3359 111.168 33.5204C112.252 34.7048 113.597 35.2971 115.206 35.2971Z" fill="black"/>
<path d="M148.821 14.3719C152.037 14.3719 154.598 15.4247 156.501 17.5304C158.438 19.6032 159.406 22.4656 159.406 26.1176V42.2063H151.036V27.2527C151.036 25.4102 150.56 23.979 149.608 22.9591C148.656 21.9391 147.376 21.4292 145.768 21.4292C144.159 21.4292 142.879 21.9391 141.927 22.9591C140.976 23.979 140.5 25.4102 140.5 27.2527V42.2063H132.08V14.668H140.5V18.32C141.353 17.1027 142.502 16.1485 143.946 15.4576C145.39 14.7338 147.015 14.3719 148.821 14.3719Z" fill="black"/>
<path d="M180.028 14.3719C183.245 14.3719 185.805 15.4247 187.709 17.5304C189.645 19.6032 190.614 22.4656 190.614 26.1176V42.2063H182.244V27.2527C182.244 25.4102 181.768 23.979 180.816 22.9591C179.864 21.9391 178.584 21.4292 176.975 21.4292C175.367 21.4292 174.087 21.9391 173.135 22.9591C172.183 23.979 171.707 25.4102 171.707 27.2527V42.2063H163.288V14.668H171.707V18.32C172.56 17.1027 173.709 16.1485 175.154 15.4576C176.598 14.7338 178.223 14.3719 180.028 14.3719Z" fill="black"/>
<path d="M220.393 27.993C220.393 28.7826 220.344 29.6051 220.246 30.4606H201.191C201.322 32.1714 201.864 33.4875 202.816 34.4087C203.801 35.2971 204.999 35.7412 206.41 35.7412C208.511 35.7412 209.972 34.8529 210.792 33.0762H219.753C219.294 34.8858 218.457 36.5144 217.242 37.9621C216.061 39.4097 214.567 40.5448 212.762 41.3673C210.956 42.1899 208.938 42.6011 206.706 42.6011C204.014 42.6011 201.618 42.0254 199.517 40.8738C197.416 39.7223 195.775 38.0772 194.593 35.9386C193.412 33.8 192.821 31.2996 192.821 28.4371C192.821 25.5747 193.395 23.0742 194.544 20.9357C195.726 18.7971 197.367 17.152 199.468 16.0005C201.569 14.8489 203.981 14.2732 206.706 14.2732C209.364 14.2732 211.728 14.8325 213.796 15.9511C215.864 17.0698 217.472 18.6655 218.621 20.7383C219.803 22.811 220.393 25.2293 220.393 27.993ZM211.777 25.7721C211.777 24.3245 211.285 23.1729 210.3 22.3175C209.315 21.4621 208.084 21.0344 206.607 21.0344C205.196 21.0344 203.998 21.4456 203.013 22.2682C202.061 23.0907 201.47 24.2587 201.24 25.7721H211.777Z" fill="black"/>
<path d="M221.192 28.4371C221.192 25.5747 221.766 23.0742 222.915 20.9357C224.096 18.7971 225.721 17.152 227.789 16.0005C229.89 14.8489 232.286 14.2732 234.978 14.2732C238.424 14.2732 241.296 15.1779 243.594 16.9875C245.925 18.7971 247.451 21.3469 248.173 24.6371H239.212C238.457 22.5314 236.996 21.4785 234.83 21.4785C233.287 21.4785 232.056 22.0872 231.137 23.3046C230.218 24.489 229.759 26.1999 229.759 28.4371C229.759 30.6744 230.218 32.4017 231.137 33.6191C232.056 34.8035 233.287 35.3958 234.83 35.3958C236.996 35.3958 238.457 34.3429 239.212 32.2372H248.173C247.451 35.4616 245.925 37.995 243.594 39.8374C241.264 41.6799 238.391 42.6011 234.978 42.6011C232.286 42.6011 229.89 42.0254 227.789 40.8738C225.721 39.7223 224.096 38.0772 222.915 35.9386C221.766 33.8 221.192 31.2996 221.192 28.4371Z" fill="black"/>
<path d="M266.02 35.0503V42.2063H261.736C258.684 42.2063 256.304 41.466 254.597 39.9855C252.89 38.472 252.037 36.0209 252.037 32.6321V21.6759H248.689V14.668H252.037V7.95613H260.456V14.668H265.971V21.6759H260.456V32.7308C260.456 33.5533 260.653 34.1455 261.047 34.5074C261.441 34.8693 262.097 35.0503 263.016 35.0503H266.02Z" fill="black"/>
<defs>
<linearGradient id="paint0_linear_4122_19460" x1="133.01" y1="0" x2="133.01" y2="49.2555" gradientUnits="userSpaceOnUse">
<stop stop-color="#CC00FF"/>
<stop offset="1" stop-color="#8D45FA"/>
</linearGradient>
</defs>
</svg>
