<svg width="355" height="40" viewBox="0 0 355 40" fill="none" xmlns="http://www.w3.org/2000/svg">
<path d="M48.0241 6.42505C48.0241 6.03892 47.8018 5.68729 47.453 5.52169L42.6176 3.22604C42.2776 3.06462 41.8757 3.10778 41.5778 3.3377L26.1841 15.2163L32.1613 19.7825L40.6615 13.2233V29.7599L6.36789 3.50653C6.06979 3.27832 5.66897 3.23631 5.33002 3.39774L0.569999 5.66486C0.221795 5.8307 0 6.182 0 6.56768V36.5361C0 36.9221 0.222192 37.2736 0.570872 37.4393L5.40643 39.7367C5.74648 39.8982 6.14844 39.8551 6.44649 39.6251L21.7347 27.8275L15.7575 23.2612L7.36259 29.7397V13.3445L41.6416 39.6055C41.9398 39.834 42.3408 39.8761 42.6799 39.7145L47.4542 37.4396C47.8024 37.2737 48.0241 36.9225 48.0241 36.5368V6.42505Z" fill="url(#paint0_linear_1421_1802)"/>
<path d="M77.1899 38.3052C74.7246 38.3052 72.5155 37.9101 70.5625 37.12C68.6095 36.3299 67.0408 35.1605 65.8562 33.6119C64.7036 32.0632 64.0953 30.1985 64.0312 28.0178H72.7716C72.8997 29.2504 73.3319 30.1985 74.0683 30.8622C74.8047 31.4943 75.7651 31.8104 76.9497 31.8104C78.1663 31.8104 79.1268 31.5417 79.8312 31.0044C80.5355 30.4356 80.8877 29.6612 80.8877 28.6815C80.8877 27.8598 80.5996 27.1802 80.0233 26.643C79.479 26.1057 78.7907 25.6632 77.9582 25.3156C77.1578 24.9679 76.0053 24.5728 74.5005 24.1304C72.3234 23.4667 70.5465 22.803 69.1698 22.1393C67.7931 21.4756 66.6085 20.4958 65.616 19.2C64.6235 17.9042 64.1273 16.2133 64.1273 14.1274C64.1273 11.0301 65.2639 8.61235 67.537 6.87408C69.8101 5.1042 72.7716 4.21926 76.4215 4.21926C80.1353 4.21926 83.1288 5.1042 85.402 6.87408C87.6751 8.61235 88.8917 11.0459 89.0518 14.1748H80.1673C80.1033 13.1003 79.7031 12.2627 78.9667 11.6622C78.2304 11.0301 77.2859 10.7141 76.1333 10.7141C75.1408 10.7141 74.3404 10.9827 73.7321 11.52C73.1238 12.0257 72.8197 12.7684 72.8197 13.7481C72.8197 14.8227 73.3319 15.6602 74.3564 16.2607C75.3809 16.8612 76.9817 17.5091 79.1588 18.2044C81.3359 18.9314 83.0968 19.6267 84.4415 20.2904C85.8182 20.9541 87.0028 21.918 87.9953 23.1822C88.9878 24.4464 89.484 26.0741 89.484 28.0652C89.484 29.9615 88.9878 31.684 87.9953 33.2326C87.0348 34.7812 85.6261 36.0138 83.7692 36.9304C81.9122 37.8469 79.7191 38.3052 77.1899 38.3052Z" fill="black"/>
<path d="M131.084 11.52L123.833 37.9733H114.756L110.53 20.8119L106.16 37.9733H97.1311L89.8314 11.52H98.0436L101.837 30.4356L106.352 11.52H115.044L119.606 30.3407L123.352 11.52H131.084Z" fill="black"/>
<path d="M136.425 8.77037C134.984 8.77037 133.8 8.35951 132.871 7.53778C131.975 6.68445 131.526 5.64148 131.526 4.40889C131.526 3.14469 131.975 2.10173 132.871 1.28C133.8 0.426667 134.984 0 136.425 0C137.834 0 138.986 0.426667 139.883 1.28C140.811 2.10173 141.275 3.14469 141.275 4.40889C141.275 5.64148 140.811 6.68445 139.883 7.53778C138.986 8.35951 137.834 8.77037 136.425 8.77037ZM140.507 11.52V37.9733H132.295V11.52H140.507Z" fill="black"/>
<path d="M159.473 31.0993V37.9733H155.295C152.317 37.9733 149.996 37.2622 148.331 35.84C146.666 34.3862 145.834 32.0316 145.834 28.7763V18.2519H142.568V11.52H145.834V5.0726H154.046V11.52H159.425V18.2519H154.046V28.8711C154.046 29.6612 154.238 30.2301 154.622 30.5778C155.007 30.9254 155.647 31.0993 156.543 31.0993H159.473Z" fill="black"/>
<path d="M160.493 24.7467C160.493 21.997 161.054 19.5951 162.174 17.5407C163.327 15.4864 164.911 13.9062 166.929 12.8C168.978 11.6938 171.315 11.1407 173.94 11.1407C177.302 11.1407 180.103 12.0099 182.344 13.7481C184.617 15.4864 186.106 17.9358 186.81 21.0963H178.07C177.334 19.0736 175.909 18.0622 173.796 18.0622C172.291 18.0622 171.091 18.6469 170.194 19.8163C169.298 20.9541 168.849 22.5975 168.849 24.7467C168.849 26.8958 169.298 28.5551 170.194 29.7244C171.091 30.8622 172.291 31.4311 173.796 31.4311C175.909 31.4311 177.334 30.4198 178.07 28.397H186.81C186.106 31.4943 184.617 33.9279 182.344 35.6978C180.071 37.4677 177.27 38.3526 173.94 38.3526C171.315 38.3526 168.978 37.7995 166.929 36.6933C164.911 35.5872 163.327 34.0069 162.174 31.9526C161.054 29.8983 160.493 27.4963 160.493 24.7467Z" fill="black"/>
<path d="M205.754 11.2356C208.828 11.2356 211.293 12.2469 213.15 14.2696C215.007 16.2607 215.936 19.0104 215.936 22.5185V37.9733H207.771V23.6089C207.771 21.839 207.307 20.4642 206.379 19.4844C205.45 18.5047 204.202 18.0148 202.633 18.0148C201.064 18.0148 199.815 18.5047 198.887 19.4844C197.959 20.4642 197.494 21.839 197.494 23.6089V37.9733H189.282V2.89185H197.494V15.0756C198.327 13.9062 199.463 12.9738 200.904 12.2785C202.345 11.5832 203.962 11.2356 205.754 11.2356Z" fill="black"/>
<path d="M227.933 15.2652C228.702 14.0326 229.806 13.037 231.247 12.2785C232.688 11.52 234.337 11.1407 236.193 11.1407C238.403 11.1407 240.404 11.6938 242.197 12.8C243.989 13.9062 245.398 15.4864 246.423 17.5407C247.479 19.5951 248.007 21.9812 248.007 24.6993C248.007 27.4173 247.479 29.8193 246.423 31.9052C245.398 33.9595 243.989 35.5556 242.197 36.6933C240.404 37.7995 238.403 38.3526 236.193 38.3526C234.305 38.3526 232.656 37.9891 231.247 37.2622C229.838 36.5037 228.734 35.5082 227.933 34.2756V37.9733H219.721V2.89185H227.933V15.2652ZM239.651 24.6993C239.651 22.6765 239.075 21.0963 237.922 19.9585C236.802 18.7891 235.409 18.2044 233.744 18.2044C232.111 18.2044 230.719 18.7891 229.566 19.9585C228.446 21.1279 227.885 22.7239 227.885 24.7467C227.885 26.7694 228.446 28.3654 229.566 29.5348C230.719 30.7042 232.111 31.2889 233.744 31.2889C235.377 31.2889 236.77 30.7042 237.922 29.5348C239.075 28.3338 239.651 26.722 239.651 24.6993Z" fill="black"/>
<path d="M262.593 38.3526C259.968 38.3526 257.598 37.7995 255.485 36.6933C253.404 35.5872 251.755 34.0069 250.539 31.9526C249.354 29.8983 248.762 27.4963 248.762 24.7467C248.762 22.0286 249.37 19.6425 250.587 17.5882C251.803 15.5022 253.468 13.9062 255.581 12.8C257.694 11.6938 260.064 11.1407 262.689 11.1407C265.314 11.1407 267.683 11.6938 269.796 12.8C271.91 13.9062 273.574 15.5022 274.791 17.5882C276.008 19.6425 276.616 22.0286 276.616 24.7467C276.616 27.4647 275.992 29.8667 274.743 31.9526C273.526 34.0069 271.846 35.5872 269.7 36.6933C267.587 37.7995 265.218 38.3526 262.593 38.3526ZM262.593 31.3363C264.162 31.3363 265.49 30.7674 266.579 29.6296C267.699 28.4919 268.26 26.8642 268.26 24.7467C268.26 22.6291 267.715 21.0015 266.627 19.8637C265.57 18.7259 264.258 18.157 262.689 18.157C261.088 18.157 259.759 18.7259 258.703 19.8637C257.646 20.9699 257.118 22.5975 257.118 24.7467C257.118 26.8642 257.63 28.4919 258.655 29.6296C259.711 30.7674 261.024 31.3363 262.593 31.3363Z" fill="black"/>
<path d="M277.419 24.6993C277.419 21.9812 277.931 19.5951 278.956 17.5407C280.012 15.4864 281.437 13.9062 283.23 12.8C285.023 11.6938 287.024 11.1407 289.233 11.1407C291.122 11.1407 292.771 11.52 294.179 12.2785C295.62 13.037 296.725 14.0326 297.493 15.2652V11.52H305.705V37.9733H297.493V34.2281C296.692 35.4607 295.572 36.4563 294.131 37.2148C292.722 37.9733 291.074 38.3526 289.185 38.3526C287.008 38.3526 285.023 37.7995 283.23 36.6933C281.437 35.5556 280.012 33.9595 278.956 31.9052C277.931 29.8193 277.419 27.4173 277.419 24.6993ZM297.493 24.7467C297.493 22.7239 296.917 21.1279 295.764 19.9585C294.643 18.7891 293.267 18.2044 291.634 18.2044C290.001 18.2044 288.608 18.7891 287.456 19.9585C286.335 21.0963 285.775 22.6765 285.775 24.6993C285.775 26.722 286.335 28.3338 287.456 29.5348C288.608 30.7042 290.001 31.2889 291.634 31.2889C293.267 31.2889 294.643 30.7042 295.764 29.5348C296.917 28.3654 297.493 26.7694 297.493 24.7467Z" fill="black"/>
<path d="M317.937 15.9289C318.898 14.4751 320.098 13.3373 321.539 12.5156C322.98 11.6622 324.581 11.2356 326.342 11.2356V19.8163H324.084C322.035 19.8163 320.499 20.2588 319.474 21.1437C318.45 21.997 317.937 23.5141 317.937 25.6948V37.9733H309.725V11.52H317.937V15.9289Z" fill="black"/>
<path d="M326.713 24.6993C326.713 21.9812 327.225 19.5951 328.25 17.5407C329.306 15.4864 330.731 13.9062 332.524 12.8C334.317 11.6938 336.318 11.1407 338.527 11.1407C340.288 11.1407 341.889 11.5042 343.329 12.2311C344.802 12.958 345.955 13.9378 346.787 15.1704V2.89185H354.999V37.9733H346.787V34.1807C346.019 35.4449 344.914 36.4563 343.473 37.2148C342.065 37.9733 340.416 38.3526 338.527 38.3526C336.318 38.3526 334.317 37.7995 332.524 36.6933C330.731 35.5556 329.306 33.9595 328.25 31.9052C327.225 29.8193 326.713 27.4173 326.713 24.6993ZM346.787 24.7467C346.787 22.7239 346.211 21.1279 345.058 19.9585C343.938 18.7891 342.561 18.2044 340.928 18.2044C339.295 18.2044 337.903 18.7891 336.75 19.9585C335.629 21.0963 335.069 22.6765 335.069 24.6993C335.069 26.722 335.629 28.3338 336.75 29.5348C337.903 30.7042 339.295 31.2889 340.928 31.2889C342.561 31.2889 343.938 30.7042 345.058 29.5348C346.211 28.3654 346.787 26.7694 346.787 24.7467Z" fill="black"/>
<defs>
<linearGradient id="paint0_linear_1421_1802" x1="48.0241" y1="20.7407" x2="-1.49956" y2="19.2205" gradientUnits="userSpaceOnUse">
<stop stop-color="#F2CB29"/>
<stop offset="1" stop-color="#F2462A"/>
</linearGradient>
</defs>
</svg>
