<svg width="499" height="128" viewBox="0 0 499 128" fill="none" xmlns="http://www.w3.org/2000/svg">
<path d="M463.962 13.7305C464.374 13.7305 464.744 13.9838 464.894 14.3682L494.618 90.8301C494.873 91.4856 494.39 92.1923 493.687 92.1924H476.322C475.906 92.1923 475.534 91.9344 475.387 91.5449L469.943 77.0889L464.058 61.2002L455.231 37.8574L447.664 57.8652H460.382C461.073 57.8652 461.557 58.5509 461.324 59.2021L455.908 74.3652C455.766 74.7632 455.389 75.0292 454.967 75.0293H441.281L440.519 77.0889L435.074 91.5449C434.928 91.9344 434.555 92.1923 434.139 92.1924H416.675C415.972 92.1924 415.488 91.4864 415.742 90.8311L445.371 14.3691C445.52 13.9842 445.891 13.7305 446.304 13.7305H463.962Z" fill="#151515"/>
<path d="M341.873 92.1925C341.321 92.1925 340.873 91.7448 340.873 91.1925V14.7305C340.873 14.1782 341.321 13.7305 341.873 13.7305H383.537C398.543 13.7305 409.037 23.9305 409.037 38.5441C409.037 49.5288 402.662 58.4539 392.952 61.9846L411.657 90.646C412.091 91.3112 411.613 92.1925 410.819 92.1925H391.638C391.296 92.1925 390.978 92.0179 390.794 91.7296L373.042 63.8481H359.998V91.1925C359.998 91.7448 359.55 92.1925 358.998 92.1925H341.873ZM359.998 46.6845H382.36C386.871 46.6845 389.912 43.448 389.912 38.8383C389.912 34.1306 386.871 30.894 382.36 30.894H359.998V46.6845Z" fill="#151515"/>
<path d="M294.154 92.1925C293.602 92.1925 293.154 91.7448 293.154 91.1925V30.894H269.759C269.041 30.894 268.557 30.16 268.84 29.5001L275.338 14.3365C275.496 13.9689 275.857 13.7305 276.257 13.7305H333.346C333.899 13.7305 334.346 14.1782 334.346 14.7305V29.894C334.346 30.4463 333.899 30.894 333.346 30.894H312.181V91.1925C312.181 91.7448 311.733 92.1925 311.181 92.1925H294.154Z" fill="#151515"/>
<path d="M216.7 92.1925C216.148 92.1925 215.7 91.7448 215.7 91.1925V14.7305C215.7 14.1782 216.148 13.7305 216.7 13.7305H267.44C268.158 13.7305 268.642 14.4644 268.359 15.1242L261.864 30.2878C261.707 30.6556 261.345 30.894 260.945 30.894H234.829L234.825 43.5461H254.282C254.978 43.5461 255.461 44.2387 255.22 44.8916L249.782 59.6628C249.637 60.0561 249.262 60.3173 248.843 60.3173H234.825V75.4213H265.504C266.057 75.4213 266.504 75.869 266.504 76.4213V91.1925C266.504 91.7448 266.057 92.1925 265.504 92.1925H216.7Z" fill="#151515"/>
<path d="M164.475 92.1925C164.062 92.1925 163.691 91.9388 163.542 91.5539L133.913 15.0918C133.659 14.4364 134.143 13.7305 134.846 13.7305H152.311C152.726 13.7305 153.099 13.9875 153.246 14.3762L172.466 65.1069C172.792 65.9678 174.01 65.9678 174.337 65.1069L193.557 14.3762C193.704 13.9875 194.076 13.7305 194.492 13.7305H211.857C212.561 13.7305 213.044 14.4373 212.789 15.0928L183.065 91.5549C182.915 91.9393 182.545 92.1925 182.133 92.1925H164.475Z" fill="#151515"/>
<path d="M0 60.8607C0 56.8084 3.28498 53.5234 7.33722 53.5234H11.792C32.0531 53.5234 48.478 69.9484 48.478 90.2095V94.6643C48.478 98.7165 45.1931 102.001 41.1408 102.001H7.33721C3.28498 102.001 0 98.7165 0 94.6643V60.8607Z" fill="#04C161"/>
<path d="M0 7.33721C0 3.28498 3.28498 0 7.33722 0H41.1408C45.1931 0 48.478 3.28498 48.478 7.33722V11.792C48.478 32.0531 32.0531 48.478 11.792 48.478H7.33721C3.28498 48.478 0 45.1931 0 41.1408V7.33721Z" fill="#04C161"/>
<path d="M53.5225 90.2095C53.5225 69.9484 69.9474 53.5234 90.2086 53.5234H94.6633C98.7155 53.5234 102.001 56.8084 102.001 60.8607V94.6643C102.001 98.7165 98.7155 102.001 94.6633 102.001H60.8597C56.8074 102.001 53.5225 98.7165 53.5225 94.6643V90.2095Z" fill="#04C161"/>
<path d="M53.5225 7.33721C53.5225 3.28498 56.8074 0 60.8597 0H94.6633C98.7155 0 102.001 3.28498 102.001 7.33722V41.1408C102.001 45.1931 98.7155 48.478 94.6633 48.478H90.2085C69.9474 48.478 53.5225 32.0531 53.5225 11.792V7.33721Z" fill="#04C161"/>
<path d="M177.02 108.14C177.02 109.3 176.62 110.267 175.82 111.04C175.033 111.8 173.827 112.18 172.2 112.18H169.52V118H167.7V104.06H172.2C173.773 104.06 174.967 104.44 175.78 105.2C176.607 105.96 177.02 106.94 177.02 108.14ZM172.2 110.68C173.213 110.68 173.96 110.46 174.44 110.02C174.92 109.58 175.16 108.953 175.16 108.14C175.16 106.42 174.173 105.56 172.2 105.56H169.52V110.68H172.2ZM183.062 118.18C182.036 118.18 181.102 117.947 180.262 117.48C179.436 117.013 178.782 116.353 178.302 115.5C177.836 114.633 177.602 113.633 177.602 112.5C177.602 111.38 177.842 110.393 178.322 109.54C178.816 108.673 179.482 108.013 180.322 107.56C181.162 107.093 182.102 106.86 183.142 106.86C184.182 106.86 185.122 107.093 185.962 107.56C186.802 108.013 187.462 108.667 187.942 109.52C188.436 110.373 188.682 111.367 188.682 112.5C188.682 113.633 188.429 114.633 187.922 115.5C187.429 116.353 186.756 117.013 185.902 117.48C185.049 117.947 184.102 118.18 183.062 118.18ZM183.062 116.58C183.716 116.58 184.329 116.427 184.902 116.12C185.476 115.813 185.936 115.353 186.282 114.74C186.642 114.127 186.822 113.38 186.822 112.5C186.822 111.62 186.649 110.873 186.302 110.26C185.956 109.647 185.502 109.193 184.942 108.9C184.382 108.593 183.776 108.44 183.122 108.44C182.456 108.44 181.842 108.593 181.282 108.9C180.736 109.193 180.296 109.647 179.962 110.26C179.629 110.873 179.462 111.62 179.462 112.5C179.462 113.393 179.622 114.147 179.942 114.76C180.276 115.373 180.716 115.833 181.262 116.14C181.809 116.433 182.409 116.58 183.062 116.58ZM204.675 107.04L201.255 118H199.375L196.735 109.3L194.095 118H192.215L188.775 107.04H190.635L193.155 116.24L195.875 107.04H197.735L200.395 116.26L202.875 107.04H204.675ZM215.481 112.1C215.481 112.447 215.461 112.813 215.421 113.2H206.661C206.728 114.28 207.095 115.127 207.761 115.74C208.441 116.34 209.261 116.64 210.221 116.64C211.008 116.64 211.661 116.46 212.181 116.1C212.715 115.727 213.088 115.233 213.301 114.62H215.261C214.968 115.673 214.381 116.533 213.501 117.2C212.621 117.853 211.528 118.18 210.221 118.18C209.181 118.18 208.248 117.947 207.421 117.48C206.608 117.013 205.968 116.353 205.501 115.5C205.035 114.633 204.801 113.633 204.801 112.5C204.801 111.367 205.028 110.373 205.481 109.52C205.935 108.667 206.568 108.013 207.381 107.56C208.208 107.093 209.155 106.86 210.221 106.86C211.261 106.86 212.181 107.087 212.981 107.54C213.781 107.993 214.395 108.62 214.821 109.42C215.261 110.207 215.481 111.1 215.481 112.1ZM213.601 111.72C213.601 111.027 213.448 110.433 213.141 109.94C212.835 109.433 212.415 109.053 211.881 108.8C211.361 108.533 210.781 108.4 210.141 108.4C209.221 108.4 208.435 108.693 207.781 109.28C207.141 109.867 206.775 110.68 206.681 111.72H213.601ZM218.704 108.82C219.024 108.193 219.477 107.707 220.064 107.36C220.664 107.013 221.39 106.84 222.244 106.84V108.72H221.764C219.724 108.72 218.704 109.827 218.704 112.04V118H216.884V107.04H218.704V108.82ZM233.345 112.1C233.345 112.447 233.325 112.813 233.285 113.2H224.525C224.591 114.28 224.958 115.127 225.625 115.74C226.305 116.34 227.125 116.64 228.085 116.64C228.871 116.64 229.525 116.46 230.045 116.1C230.578 115.727 230.951 115.233 231.165 114.62H233.125C232.831 115.673 232.245 116.533 231.365 117.2C230.485 117.853 229.391 118.18 228.085 118.18C227.045 118.18 226.111 117.947 225.285 117.48C224.471 117.013 223.831 116.353 223.365 115.5C222.898 114.633 222.665 113.633 222.665 112.5C222.665 111.367 222.891 110.373 223.345 109.52C223.798 108.667 224.431 108.013 225.245 107.56C226.071 107.093 227.018 106.86 228.085 106.86C229.125 106.86 230.045 107.087 230.845 107.54C231.645 107.993 232.258 108.62 232.685 109.42C233.125 110.207 233.345 111.1 233.345 112.1ZM231.465 111.72C231.465 111.027 231.311 110.433 231.005 109.94C230.698 109.433 230.278 109.053 229.745 108.8C229.225 108.533 228.645 108.4 228.005 108.4C227.085 108.4 226.298 108.693 225.645 109.28C225.005 109.867 224.638 110.68 224.545 111.72H231.465ZM234.067 112.48C234.067 111.36 234.294 110.38 234.747 109.54C235.2 108.687 235.82 108.027 236.607 107.56C237.407 107.093 238.3 106.86 239.287 106.86C240.14 106.86 240.934 107.06 241.667 107.46C242.4 107.847 242.96 108.36 243.347 109V103.2H245.187V118H243.347V115.94C242.987 116.593 242.454 117.133 241.747 117.56C241.04 117.973 240.214 118.18 239.267 118.18C238.294 118.18 237.407 117.94 236.607 117.46C235.82 116.98 235.2 116.307 234.747 115.44C234.294 114.573 234.067 113.587 234.067 112.48ZM243.347 112.5C243.347 111.673 243.18 110.953 242.847 110.34C242.514 109.727 242.06 109.26 241.487 108.94C240.927 108.607 240.307 108.44 239.627 108.44C238.947 108.44 238.327 108.6 237.767 108.92C237.207 109.24 236.76 109.707 236.427 110.32C236.094 110.933 235.927 111.653 235.927 112.48C235.927 113.32 236.094 114.053 236.427 114.68C236.76 115.293 237.207 115.767 237.767 116.1C238.327 116.42 238.947 116.58 239.627 116.58C240.307 116.58 240.927 116.42 241.487 116.1C242.06 115.767 242.514 115.293 242.847 114.68C243.18 114.053 243.347 113.327 243.347 112.5ZM253.415 109.08C253.788 108.427 254.335 107.893 255.055 107.48C255.775 107.067 256.595 106.86 257.515 106.86C258.501 106.86 259.388 107.093 260.175 107.56C260.961 108.027 261.581 108.687 262.035 109.54C262.488 110.38 262.715 111.36 262.715 112.48C262.715 113.587 262.488 114.573 262.035 115.44C261.581 116.307 260.955 116.98 260.155 117.46C259.368 117.94 258.488 118.18 257.515 118.18C256.568 118.18 255.735 117.973 255.015 117.56C254.308 117.147 253.775 116.62 253.415 115.98V118H251.595V103.2H253.415V109.08ZM260.855 112.48C260.855 111.653 260.688 110.933 260.355 110.32C260.021 109.707 259.568 109.24 258.995 108.92C258.435 108.6 257.815 108.44 257.135 108.44C256.468 108.44 255.848 108.607 255.275 108.94C254.715 109.26 254.261 109.733 253.915 110.36C253.581 110.973 253.415 111.687 253.415 112.5C253.415 113.327 253.581 114.053 253.915 114.68C254.261 115.293 254.715 115.767 255.275 116.1C255.848 116.42 256.468 116.58 257.135 116.58C257.815 116.58 258.435 116.42 258.995 116.1C259.568 115.767 260.021 115.293 260.355 114.68C260.688 114.053 260.855 113.32 260.855 112.48ZM273.55 107.04L266.95 123.16H265.07L267.23 117.88L262.81 107.04H264.83L268.27 115.92L271.67 107.04H273.55Z" fill="#151515"/>
<path d="M291.828 122.577V116.714H295.158C300.404 116.714 303.678 113.895 303.678 109.554C303.678 105.213 300.431 102.395 295.214 102.395H286V122.577H291.828ZM291.828 106.679H294.548C296.518 106.679 297.823 107.807 297.823 109.554C297.823 111.302 296.518 112.43 294.548 112.43H291.828V106.679Z" fill="#151515"/>
<path d="M315.636 123C322.268 123 326.764 118.913 326.764 112.486C326.764 106.059 322.268 102 315.636 102C308.975 102 304.479 106.059 304.479 112.486C304.479 118.913 308.975 123 315.636 123ZM315.636 118.123C312.5 118.123 310.335 115.897 310.335 112.486C310.335 109.103 312.5 106.848 315.636 106.848C318.772 106.848 320.909 109.103 320.909 112.486C320.909 115.897 318.772 118.123 315.636 118.123Z" fill="#151515"/>
<path d="M340.145 122.577L342.92 110.344H343.197L345.973 122.577H354.132L359.488 102.395H353.633L349.941 117.193H349.664L345.973 102.395H340.145L336.481 117.193H336.204L332.485 102.395H326.629L331.985 122.577H340.145Z" fill="#151515"/>
<path d="M376.603 122.577V117.898H366.695V114.318H374.064V110.456H366.695V107.074H376.325V102.395H361.034V122.577H376.603Z" fill="#151515"/>
<path d="M384.303 122.577V115.925H385.719L390.659 122.577H397.18L391.325 115.474L391.547 115.417C394.433 114.882 396.542 112.57 396.542 109.272C396.542 105.157 393.323 102.395 388.466 102.395H378.447V122.577H384.303ZM384.303 106.679H387.439C389.299 106.679 390.686 107.694 390.686 109.357C390.686 111.048 389.299 112.063 387.439 112.063H384.303V106.679Z" fill="#151515"/>
<path d="M404.346 122.577V114.487H411.145V122.577H417.001V102.395H411.145V109.836H404.346V102.395H398.49V122.577H404.346Z" fill="#151515"/>
<path d="M429.996 123C436.629 123 441.125 118.913 441.125 112.486C441.125 106.059 436.629 102 429.996 102C423.336 102 418.84 106.059 418.84 112.486C418.84 118.913 423.336 123 429.996 123ZM429.996 118.123C426.86 118.123 424.696 115.897 424.696 112.486C424.696 109.103 426.86 106.848 429.996 106.848C433.132 106.848 435.269 109.103 435.269 112.486C435.269 115.897 433.132 118.123 429.996 118.123Z" fill="#151515"/>
<path d="M452.179 123C457.73 123 461.504 119.617 461.504 114.29V102.395H455.648V114.093C455.648 116.517 454.261 118.123 452.179 118.123C450.07 118.123 448.71 116.545 448.71 114.093V102.395L442.854 105.895V114.29C442.854 119.617 446.629 123 452.179 123Z" fill="#151515"/>
<path d="M472.338 123C477.888 123 481.524 120.407 481.524 116.404C481.524 111.528 476.945 110.795 473.559 110.287C471.256 109.949 469.285 109.695 469.285 108.173C469.285 107.046 470.395 106.256 472.255 106.256C474.253 106.256 475.557 107.271 475.557 109.047H480.858C480.858 104.875 477.333 102 472.06 102C466.815 102 463.429 104.593 463.429 108.596C463.429 113.783 468.591 114.205 472.005 114.685C474.031 114.966 475.668 115.305 475.668 116.77C475.668 118.011 474.447 118.715 472.56 118.715C470.173 118.715 468.813 117.616 468.786 115.925H463.291C463.291 120.097 466.898 123 472.338 123Z" fill="#151515"/>
<path d="M499 122.577V117.898H489.092V114.318H496.461V110.456H489.092V107.074H498.722V102.395H483.431V122.577H499Z" fill="#151515"/>
</svg>
